<?xml version="1.0" encoding="UTF-8"?>
<svg fill="#F2F2F2" width="100pt" height="100pt" version="1.1" viewBox="0 0 100 100" xmlns="http://www.w3.org/2000/svg">
 <g>
  <path d="m74.699 50.801c-0.10156-0.5-0.10156-1.1016-0.19922-1.6016 0-0.10156-0.10156-0.19922-0.19922-0.30078-0.10156 0.10156-0.19922 0.10156-0.30078 0.20312-0.10156 0.19922-0.19922 0.39844-0.30078 0.60156h-0.19922v-0.89844c0.10156-0.69922-0.5-1.1016-0.69922-1.6992h-0.10156c-0.39844 0.10156-1 0.19922-1.3008 0.5-0.5 0.39453-0.89844 0.89453-1.3984 1.3945-0.10156 0.10156-0.19922 0.39844-0.19922 0.60156 0.10156 0.80078-0.30078 1.3984-0.69922 2.1016 0 0.10156-0.10156 0.10156-0.19922 0.10156-0.10156 0-0.10156-0.10156-0.19922-0.19922-0.19922-0.60156-0.5-1.1992-0.69922-1.8008-0.19922-0.60156-0.30078-1.3008-0.5-1.8984 0-0.19922 0-0.39844-0.39844-0.30078-0.30078 0.10156-0.39844-0.10156-0.39844-0.30078 0-0.60156-0.69922-0.69922-0.89844-1.1016 0 0-0.19922 0-0.30078 0.10156-0.60156 0.30078-1.1016 0.19922-1.6992 0-0.10156 0-0.19922-0.10156-0.30078-0.19922-0.19922-0.30078-0.39844-0.39844-0.69922-0.19922-0.30078 0.10156-1-0.39844-1.1992-0.80078l-0.30078-0.30078c0 0.19922-0.10156 0.39844 0 0.5 0.19922 0.5 0.5 0.89844 0.80078 1.3008 0.10156 0.10156 0.30078 0.10156 0.39844 0 0.19922-0.10156 0.39844-0.30078 0.60156-0.39844 0.30078 0.19922 0.60156 0.39844 0.80078 0.60156 0.30078 0.19922 0.30078 0.39844 0.19922 0.69922-0.5 1.1016-1.3008 1.8008-2.3984 2.1016-0.19922 0.10156-0.39844 0.19922-0.60156 0.30078-0.39844 0.19922-0.80078 0.30078-1.3984 0.5 0 0.10156 0 0.5 0.10156 0.60156 0.19922 0.10156 0.5 0 0.69922-0.10156 0.30078-0.10156 0.60156-0.19922 0.89844-0.30078 0.30078-0.10156 0.5 0 0.39844 0.30078-0.10156 0.39844-0.19922 0.69922-0.30078 1.1016-0.19922 0.39844-0.39844 0.80078-0.60156 1.1992-0.10156 0.19922-0.19922 0.39844-0.39844 0.39844-0.89844 0.5-1.3008 1.3984-1.8008 2.1016-0.30078 0.5-0.10156 1.1016 0.19922 1.6016 0.30078 0.60156 0.30078 1.8984-0.39844 2.3008-0.19922 0.19922-0.39844 0.39844-0.60156 0.60156-0.30078 0.30078-0.39844 0.69922-0.19922 1.1016 0.19922 0.39844 0.10156 0.69922-0.39844 0.80078-0.30078 0.10156-0.39844 0.30078-0.30078 0.60156 0.10156 0.10156 0 0.30078-0.10156 0.5-0.30078 0.5-0.69922 0.89844-1.1016 1.3008-0.19922 0.19922-0.60156 0.30078-0.89844 0.39844-0.30078 0.10156-0.69922 0.10156-1 0.30078-0.39844 0.19922-0.69922 0.10156-0.80078-0.30078-0.10156-0.69922-0.30078-1.3008-0.69922-1.8984-0.10156-0.10156-0.10156-0.39844 0-0.60156 0.19922-0.39844 0-0.69922-0.19922-1.1016-0.5-0.69922-0.89844-1.3984-0.80078-2.1992 0-0.30078 0.19922-0.60156 0.30078-0.89844 0.10156-0.19922 0.10156-0.5 0.10156-0.69922-0.10156-0.5-0.19922-1-0.30078-1.5-0.10156-0.5-0.19922-0.89844-0.69922-1.1992-0.10156 0-0.10156-0.30078-0.10156-0.39844 0-0.30078 0.19922-0.69922 0.19922-1 0-0.19922 0-0.39844-0.10156-0.5-0.10156-0.10156-0.30078-0.10156-0.5 0-0.30078 0.19922-0.60156 0.10156-0.69922-0.30078-0.30078-0.69922-0.80078-0.69922-1.3984-0.19922-0.19922 0.19922-0.60156 0.30078-0.89844 0.30078-0.39844 0.10156-0.80078-0.19922-1.1016 0.30078 0 0-0.39844 0-0.39844-0.10156-0.30078-0.30078-0.5-0.69922-0.69922-1.1016-0.19922-0.39844-0.39844-0.69922-0.80078-0.89844-0.5-0.19922-0.80078-1-0.5-1.5 0.30078-0.60156 0.39844-1.1016 0.19922-1.6992-0.10156-0.19922 0-0.39844 0.10156-0.60156 0.10156-0.30078 0.19922-0.5 0.30078-0.69922 0.10156-0.5 0.39844-0.89844 0.89844-1.1016 0.30078-0.10156 0.39844-0.30078 0.5-0.60156 0-0.80078 0.60156-1.1016 1.1016-1.5l0.089844-0.019531c0.60156 0.19922 1-0.19922 1.5-0.39844 0.39844-0.19922 0.89844-0.19922 1.3008-0.30078 0.30078-0.10156 0.60156-0.10156 1-0.10156 0.39844-0.10156 0.60156 0.10156 0.80078 0.39844 0.19922 0.30078 0 0.5-0.39844 0.69922 0.39844 0.19922 0.60156 0.39844 0.89844 0.60156 0.39844 0.19922 0.80078 0.39844 1.3008 0.60156 0.30078 0.19922 0.60156 0.10156 0.69922-0.19922 0.19922-0.39844 0.39844-0.39844 0.80078-0.30078 0.19922 0.10156 0.5 0.10156 0.69922 0.10156 0.5 0.10156 1 0.10156 1.5 0.19922 0.30078 0.10156 0.5 0 0.69922-0.19922 0.10156-0.19922 0.19922-0.30078 0.19922-0.5 0.19922-0.69922 0.10156-0.80078-0.60156-0.69922-0.39844 0-0.80078 0-1.1016-0.10156-0.39844-0.10156-0.80078-0.39844-0.69922-0.89844 0-0.10156-0.10156-0.30078-0.19922-0.39844-0.30078 0.19922-0.60156 0.30078-0.39844 0.60156 0.19922 0.30078-0.10156 0.5-0.30078 0.60156-0.10156 0.10156-0.30078 0.19922-0.39844 0.30078-0.30078-0.60156-0.39844-1.3008-0.80078-1.8008-0.39844-0.5-0.89844-0.89844-1.3984-1.1992 0.19922 0.69922 0.89844 1 1.3008 1.3984-0.10156 0.30078-0.19922 0.60156-0.30078 0.89844-0.10156-0.10156-0.19922-0.30078-0.30078-0.30078-0.19922-0.19922-0.39844-0.39844-0.69922-0.60156-0.30078-0.19922-0.60156-0.5-0.89844-0.69922-0.19922-0.19922-0.30078-0.30078-0.60156-0.10156-0.19922 0.10156-0.5 0.10156-0.80078 0.19922-0.10156 0-0.30078 0.10156-0.39844 0.19922-0.19922 0.10156-0.30078 0.30078-0.5 0.5-0.19922 0.19922-0.39844 0.30078-0.39844 0.5-0.10156 0.5-0.39844 0.69922-0.89844 0.80078-0.19922 0.10156-0.5 0.10156-0.60156 0.19922-0.19922-0.10156-0.5-0.19922-0.69922-0.30078-0.30078-0.10156-0.5-0.5-0.39844-0.80078 0.10156-0.30078 0.10156-0.5 0.10156-0.80078 0-0.5 0.19922-0.60156 0.69922-0.60156 0.30078 0 0.60156 0.10156 0.80078 0.10156 0.30078 0 0.60156 0 0.60156-0.39844 0.10156-0.39844 0-0.69922-0.39844-0.80078-0.10156-0.10156-0.30078-0.10156-0.39844-0.19922v-0.10156c0.39844-0.10156 0.89844-0.30078 1.3008-0.39844v-0.10156c-0.5-0.10156-1.1016-0.19922-1.8008-0.30078 0.30078-0.30078 0.5-0.60156 0.69922-0.89844-0.19922-0.10156-0.30078-0.19922-0.5-0.30078 0 0.60156-0.30078 0.89844-0.80078 1.1016-0.30078 0.10156-0.39844 0-0.5-0.30078-0.10156-0.69922 0.39844-0.89844 0.80078-1 0.10156-0.30078 0.10156-0.60156 0.19922-0.69922 0.39844-0.30078 1-0.39844 1.5-0.10156 0.10156 0 0.10156 0.19922 0 0.30078-0.30078 0.39844-0.10156 0.60156 0.19922 0.89844 0.19922 0.19922 0.30078 0.5 0.60156 0.60156 0.10156 0.10156 0.39844 0.19922 0.5 0.10156 0.39844-0.19922 0.69922-0.39844 1.1016-0.60156 0.10156-0.10156 0.10156-0.30078 0.10156-0.39844 0.10156-0.19922 0.19922-0.39844 0.30078-0.5 0.19922-0.10156 0.39844 0 0.39844 0.30078 0 0.39844 0.19922 0.5 0.5 0.5 0.60156 0 1.1992 0 1.8008-0.10156 0.10156 0 0.19922-0.10156 0.30078-0.19922 0.10156-0.5 0.30078-0.80078 1-0.69922-0.10156-0.19922-0.10156-0.30078-0.19922-0.39844 0.39844 0 0.69922 0 1.1016-0.10156 0.10156 0 0.19922-0.10156 0.39844-0.19922-0.10156-0.10156-0.19922-0.19922-0.39844-0.19922-0.30078 0-0.60156 0-0.89844 0.10156-0.30078 0.10156-0.5 0-0.60156-0.30078-0.10156-0.30078-0.30078-0.60156 0.10156-0.80078 0.30078-0.19922 0.5-0.39844 0.80078-0.60156-0.5-0.30078-0.69922-0.19922-0.89844 0.19922-0.10156 0.39844-0.39844 0.5-0.69922 0.60156-0.5 0.19922-0.5 0.19922-0.19922 0.60156 0 0.10156 0.10156 0.10156 0.10156 0.19922 0 0.60156-1.1016 1.6016-1.6992 1.3984-0.10156 0-0.19922-0.10156-0.19922-0.19922-0.10156-0.19922-0.10156-0.39844-0.19922-0.69922-0.10156 0.10156-0.30078 0.10156-0.30078 0.19922-0.39844 0.30078-0.89844 0.10156-1-0.30078-0.30078-0.80078-0.10156-1.3008 0.60156-1.8008 0.10156-0.10156 0.30078-0.10156 0.5-0.19922 0.39844-0.19922 0.80078-0.5 1.1016-0.69922 0.39844-0.30078 0.80078-0.60156 1.1992-0.89844 1.1016-0.69922 2.1016-0.60156 3.1992-0.10156 0.69922 0.30078 1.3984 0.60156 2.1992 0.5 0.5-0.10156 0.80078 0.30078 0.80078 0.80078h0.5c0.19922-0.19922-0.10156-0.80078 0.39844-0.80078 0.19922 0 0.30078 0.19922 0.39844 0.30078 1-0.10156 2.1016-0.10156 3.1992-0.19922 0.10156 0 0.30078-0.10156 0.39844-0.10156 0.30078-0.30078 0.69922-0.30078 1-0.19922 0.39844 0.10156 0.69922 0.19922 1.1992 0.30078-0.10156-0.19922-0.10156-0.30078-0.10156-0.30078-0.39844-0.30078-0.39844-0.5 0-0.80078 0.10156-0.10156 0.19922-0.19922 0.30078-0.30078 0.19922-0.10156 0.39844-0.19922 0.60156-0.19922 0.19922 0.10156 0.5 0.30078 0.39844 0.60156 0 0.30078 0.10156 0.5 0 0.80078-0.10156 0.30078-0.19922 0.60156-0.30078 0.89844 0.60156-0.10156 0.80078-0.60156 0.69922-1.3984 0-0.19922 0-0.39844 0.10156-0.69922h0.19922c0.10156 0.19922 0.19922 0.30078 0.39844 0.60156 0.10156-0.19922 0.10156-0.30078 0.19922-0.39844 0.19922-0.30078 0.39844-0.39844 0.69922-0.10156 0.30078 0.30078 0.69922 0.5 1.1016 0.69922-0.10156-0.10156-0.19922-0.30078-0.30078-0.39844-0.10156-0.10156-0.30078-0.19922-0.39844-0.30078-0.51953-0.50391-0.51953-0.60547-0.51953-0.70703 0 0 0.10156-0.10156 0.19922-0.10156 0.80078 0.10156 1.3008-0.30078 2-0.60156 0.19922-0.10156 0.39844-0.10156 0.60156-0.10156 0.5 0.10156 0.69922-0.30078 1.1016-0.39844 0.30078-0.10156 0.69922 0.19922 1.1016 0.19922 0.19922 0 0.30078-0.10156 0.5-0.19922 0.30078-0.10156 0.60156-0.19922 0.80078-0.19922 0.69922 0.30078 1.3008 0.10156 2 0.19922h0.10156c0.69922 0.10156 0.69922 0.10156 0.39844 0.69922v0.19922c0.30078 0 0.69922 0 1 0.10156 0.19922 0 0.39844 0.10156 0.60156 0.10156h0.89844c0.39844 0 0.89844-0.10156 1.3008-0.10156 0.30078 0 0.39844 0.19922 0.39844 0.5 0 0.5 0.19922 0.60156 0.60156 0.39844 0.10156-0.10156 0.30078-0.10156 0.5-0.10156 0.39844 0 0.80078 0 1.1992-0.10156 0.19922-0.10156 0.39844-0.30078 0.5-0.5 0.10156-0.30078-0.19922-0.30078-0.39844-0.30078-0.10156 0-0.19922-0.10156-0.39844-0.19922 0.10156-0.10156 0.10156-0.30078 0.19922-0.30078 0.5 0 1 0.10156 1.6016 0.10156 0.10156 0 0.19922 0.10156 0.39844 0.19922-0.10156 0.10156-0.19922 0.19922-0.30078 0.19922 0 0-0.10156 0-0.19922 0.10156 0.19922 0.39844 0.5 0.39844 0.89844 0.39844 0.30078 0 0.69922 0.10156 0.89844 0.19922 0.5 0.30078 1 0.30078 1.5 0.30078s0.89844 0 1.3984 0.30078c0.10156 0.10156 0.30078 0.10156 0.5 0.10156 0.69922 0 1.3008-0.30078 1.8984 0.19922 0 0 0.19922-0.10156 0.30078-0.19922 0.10156-0.30078 0.30078-0.30078 0.60156-0.19922 0.39844 0.10156 0.69922 0.10156 1.1016 0.19922 0.60156 0 0.80078 0.19922 0.69922 0.69922 0 0.30078 0.10156 0.69922-0.19922 1-0.10156 0.10156 0.10156 0.30078 0.10156 0.60156-0.30078 0.10156-0.69922 0-1.1016 0.19922-0.80078 0.39844-1.6992 0.60156-2.6016 0.5-0.39844 0-0.69922 0.30078-0.69922 0.60156 0 0.60156-0.19922 1-0.69922 1.3984-0.39844 0.30078-0.69922 0.69922-1.1016 1.1016-0.10156 0.10156-0.19922 0.10156-0.10156 0.10156-0.10156-0.5-0.10156-0.89844-0.19922-1.3984-0.10156-0.39844 0.19922-0.89844 0.60156-1.1992 0.30078-0.19922 0.60156-0.30078 0.80078-0.5v-0.10156c-0.39844-0.60156-0.39844-0.60156-1-0.19922-0.19922 0.10156-0.39844 0.30078-0.60156 0.39844-0.30078 0.30078-0.60156 0.30078-0.89844 0.10156-0.19922-0.10156-0.5-0.10156-0.69922-0.10156h-1.1992c-0.30078 0-0.5 0.10156-0.69922 0.30078-0.39844 0.30078-0.80078 0.60156-1.1992 0.89844 0.10156 0.30078 0.30078 0.39844 0.69922 0.30078 0.30078 0 0.69922 0.10156 1 0.19922 0 0 0.10156 0 0.10156 0.10156 0.10156 0.39844 0.19922 0.89844 0.19922 1.3008 0 0.19922-0.10156 0.5-0.19922 0.69922 0 0.10156-0.10156 0.19922-0.10156 0.30078-0.10156-0.10156-0.19922-0.10156-0.19922-0.19922-0.10156-0.30078-0.10156-0.69922-0.10156-1.1016-0.10156 0.10156-0.19922 0.19922-0.19922 0.19922-0.10156 0.69922-0.60156 1-1 1.3984-0.19922 0.19922-0.30078 0.39844-0.5 0.5-0.10156 0.10156-0.30078 0.19922-0.5 0.19922-0.39844-0.10156-0.69922 0.10156-0.89844 0.39844-0.30078 0.39844-0.69922 0.69922-0.19922 1.3008 0.10156 0.19922-0.10156 0.60156-0.19922 0.89844 0 0.10156-0.30078 0.10156-0.5 0.10156 0-0.19922-0.10156-0.30078-0.10156-0.5 0.10156-0.39844 0.10156-0.60156-0.39844-0.60156 0-0.30078 0-0.5-0.10156-0.80078-0.30078 0.10156-0.5 0.19922-0.69922 0.30078-0.10938-0.19141-0.10938-0.28906-0.21094-0.39062h-0.10156c-0.10156 0.10156-0.19922 0.19922-0.30078 0.30078-0.10156 0.10156-0.19922 0.19922-0.30078 0.30078 0.19922 0.10156 0.30078 0.30078 0.5 0.39844 0.19922 0.10156 0.39844 0.10156 0.60156 0.19922-0.10156 0.19922-0.30078 0.30078-0.39844 0.5l-0.10156 0.10156c0.10156 0.19922 0.19922 0.5 0.30078 0.69922 0.39844 0.89844 0.30078 1.3984-0.39844 2.1016-0.19922 0.19922-0.39844 0.39844-0.5 0.60156-0.30078 0.5-0.80078 0.69922-1.3984 0.80078-0.60156 0.10156-0.60156 0.10156-0.5 0.69922 0 0.19922-0.10156 0.39844-0.19922 0.60156h-0.19922c-0.10156-0.19922-0.10156-0.30078-0.10156-0.5v-0.69922c-0.19922 0.10156-0.39844 0.19922-0.5 0.39844-0.10156 0.19922-0.10156 0.5 0 0.69922 0.19922 0.30078 0.39844 0.60156 0.60156 0.89844 0.39844 0.60156 0.30078 1.1992-0.30078 1.6016-0.19922 0.10156-0.30078 0.30078-0.39844 0.5-0.10156 0.19922-0.19922 0.39844-0.30078 0.60156-0.39844-0.69922-0.39844-1.5-1.1016-1.8984-0.10156 0.19922-0.10156 0.39844-0.19922 0.5-0.60156 0.19531-0.70312 0.29297-0.90234 0.39453zm-11.801-11c-0.39844-0.80078-0.5-0.80078-1.1016-0.5-0.10156 0.10156-0.30078 0.10156-0.5 0.10156-0.39844 0-0.69922 0.39844-0.5 0.69922 0.19922 0.30078 0.39844 0.5 0.60156 0.69922 0.5 0.39844 0.60156 0.39844 0 0.80078-0.19922 0.19922-0.30078 0.39844-0.10156 0.5 0.39844 0.19922 0.80078 0.30078 1.1992 0.39844 0 0 0.19922-0.10156 0.19922-0.19922-0.10156-0.5-0.10156-1-0.30078-1.5-0.10156-0.19922-0.30078-0.39844-0.5-0.60156-0.10156-0.10156-0.19922-0.30078-0.10156-0.39844 0.10156-0.10156 0.19922-0.19922 0.39844-0.19922 0.20703 0.097657 0.41016 0.097657 0.70703 0.19922zm-4.7969-0.40234c-0.10156 0.10156-0.19922 0.30078-0.39844 0.39844-0.19922 0.19922-0.39844 0.19922-0.60156 0-0.5-0.60156-0.5-0.60156-0.89844 0.10156 0 0.10156-0.10156 0.10156-0.10156 0.19922-0.39844 0.30078-0.30078 0.69922-0.19922 1.1016 0.39844-0.10156 0.69922-0.10156 1-0.19922 0.39844-0.19922 0.80078-0.19922 1.1992 0 0.30078 0.10156 0.69922 0.19922 1 0.10156 0.39844 0 0.39844-0.30078 0.10156-0.5-0.30078-0.19922-0.60156-0.39844-0.80078-0.60156-0.10156-0.19922-0.20312-0.39844-0.30078-0.60156zm1.5 10.203c0.19922-0.69922 0-1.3008-0.5-1.8008-0.19922-0.19922-0.30078-0.39844-0.5-0.69922-0.30078-0.5-0.5-1.1016-0.69922-1.6016-0.10156-0.10156-0.19922-0.10156-0.39844-0.19922v0.39844c0.19922 0.60156 0.30078 1.1016 0.5 1.6992 0.10156 0.30078 0.10156 0.60156 0.19922 0.80078 0.30078 0.39844 0.60156 0.69922 0.89844 1.1016 0.19922 0.097657 0.39844 0.19922 0.5 0.30078zm-0.5-16.402c-0.39844 0-0.80078 0.10156-1.3008 0.10156 0 0.30078 0 0.5 0.39844 0.30078 0.10156 0 0.19922-0.10156 0.30078 0 0.5 0.29688 0.5 0 0.60156-0.40234zm-1.6016 21c-0.10156-0.10156-0.30078-0.19922-0.30078-0.19922-0.10156 0.10156-0.19922 0.30078-0.30078 0.39844 0 0.10156 0.10156 0.19922 0.19922 0.30078 0.10156-0.19922 0.20312-0.30078 0.40234-0.5zm11.102-21.801c0.19922 0 0.39844 0.10156 0.69922 0.10156 0-0.10156 0-0.30078-0.10156-0.39844-0.30078-0.10156-0.5 0-0.59766 0.29688z"/>
  <path d="m38.5 55.5c-0.19922-0.10156-0.39844-0.19922-0.5-0.30078-0.19922-0.30078-0.5-0.30078-0.80078-0.30078-0.10156 0-0.19922 0-0.30078-0.10156-0.60156-0.30078-1.3008-0.60156-1.8984-0.89844v-0.5c-0.30078-0.39844-0.60156-0.80078-0.89844-1.1992-0.19922-0.19922-0.39844-0.39844-0.80078-0.19922-0.10156 0-0.30078 0-0.39844-0.10156-0.10156-0.10156-0.19922-0.30078-0.39844-0.39844-0.39844-0.10156-0.60156-0.39844-0.5-0.69922-0.19922 0-0.30078-0.10156-0.5-0.10156h-0.39844c-0.39844 0-0.80078 0.10156-1 0-0.5-0.39844-0.60156-0.10156-0.89844 0.30078 0-0.30078 0.10156-0.5 0.10156-0.69922-0.5 0.10156-0.89844 0.30078-1.1992 0.69922-0.19922 0.30078-0.30078 0.5-0.69922 0.19922-0.10156-0.10156-0.39844-0.10156-0.5 0-0.5 0.19922-0.80078 0.10156-0.89844-0.5 0-0.30078 0-0.5 0.10156-0.80078 0.10156-0.5-0.19922-0.80078-0.80078-0.69922h-0.60156c0.10156-0.39844 0.19922-0.80078 0.19922-1.1016 0-0.19922 0.10156-0.5 0-0.60156-0.10156-0.10156-0.39844-0.10156-0.60156-0.10156-0.19922 0-0.39844 0.19922-0.39844 0.39844 0 0.5-0.5 0.30078-0.69922 0.5-0.10156 0-0.30078-0.10156-0.39844-0.19922-0.5-0.39844-0.60156-1-0.60156-1.6992 0-0.30078 0-0.69922 0.10156-0.89844 0.19922-0.39844 1-0.69922 1.5-0.60156 0.19922 0 0.39844 0 0.60156-0.10156 0.5-0.30078 1.6016-0.10156 1.6992 0.60156 0 0.19922 0.19922 0.39844 0.30078 0.60156 0.10156 0.10156 0.19922 0.10156 0.30078 0.19922 0.10156-0.10156 0.19922-0.19922 0.19922-0.30078 0-0.30078-0.10156-0.69922-0.19922-0.89844-0.19922-0.30078-0.10156-0.5 0.10156-0.69922 0.39844-0.39844 0.80078-0.69922 1.1016-1.1016 0.10156-0.10156 0.19922-0.19922 0.10156-0.30078-0.19922-0.5 0.19922-0.69922 0.39844-1 0.10156-0.30078 0.39844-0.60156 0.89844-0.5 0.19922 0 0.39844 0 0.30078-0.30078-0.10156-0.30078-0.19922-0.5 0.10156-0.60156 0.30078-0.10156 0.60156-0.39844 0.89844 0.10156 0 0.10156 0.19922 0.10156 0.30078 0.10156 0.39844-0.10156 0.89844-0.30078 1.3008-0.39844 0.10156 0 0.19922-0.19922 0.10156-0.30078 0-0.10156-0.19922-0.19922-0.19922-0.19922-0.39844 0.30078-0.60156-0.19922-0.89844-0.19922-0.10156-0.60156-0.30078-0.69922-0.80078-0.5-0.19922 0.10156-0.39844 0.10156-0.60156 0.19922 0.10156-0.5 0.10156-0.5 0.80078-0.60156 0.30078-0.10156 0.5-0.10156 0.69922 0.19922 0 0.10156 0.39844 0.10156 0.39844 0.10156 0.30078-0.60156 0.80078-0.5 1.3008-0.69922-0.19922 0.39844-0.30078 0.69922-0.5 1.1992h1.6992l0.10156-0.10156c-0.19922-0.19922-0.30078-0.5-0.5-0.5-0.60156-0.10156-0.5-0.39844-0.30078-0.80078 0.10156-0.10156 0.10156-0.19922 0.10156-0.39844-0.5-0.30078-1-0.5-1.5-0.80078-0.10156 0-0.10156-0.19922-0.19922-0.30078-0.19922-0.30078-0.39844-0.60156-0.60156-0.89844-0.19922-0.30078-0.39844-0.30078-0.60156 0-0.19922 0.30078-0.5 0.39844-0.80078 0.19922-0.10156-0.10156-0.19922-0.39844-0.19922-0.5l0.10156-0.10156c-0.60156-0.10156-1.1992-0.30078-1.8008-0.39844-0.10156 0-0.39844 0.10156-0.39844 0.19922-0.10156 0.39844-0.39844 0.80078 0.10156 1.1992 0.10156 0.10156 0.10156 0.30078 0.10156 0.39844-0.10156 0.10156-0.30078 0.10156-0.39844 0.19922h-0.30078c0.10156 0.30078 0.19922 0.60156 0.19922 0.89844 0 0.10156-0.10156 0.19922-0.19922 0.30078-0.10156-0.10156-0.19922-0.19922-0.19922-0.30078-0.10156-0.10156 0-0.30078-0.10156-0.30078-0.39844-0.39844-0.69922-0.89844-1.3984-0.69922-0.19922 0.10156-0.5-0.10156-0.80078-0.19922-0.22656-0.48828-0.42578-0.58984-0.625-0.58984-0.39844 0-0.5-0.19922-0.60156-0.5-0.19922-0.5 0.5-1.3984 1.1016-1.5 0.19922 0 0.5-0.10156 0.80078-0.10156 0 0.10156 0.10156 0.19922 0.10156 0.19922 0.39844 0 0.69922 0 1 0.10156h0.39844c-0.10156-0.10156-0.10156-0.30078-0.19922-0.39844-0.19922-0.19922-0.39844-0.30078-0.60156-0.39844 0.80078-0.39844 0.80078-0.39844 0.5-1 0.30078 0 0.60156-0.10156 0.89844-0.10156 0.60156 0 0.60156 0.19922 0.39844 0.80078 0.30078-0.10156 0.60156-0.19922 0.89844-0.30078-0.30078 0.30078-0.5 0.80078-1 0.69922-0.10156 0-0.19922 0.19922-0.30078 0.39844 0.10156 0.10156 0.30078 0.19922 0.39844 0.19922 0.39844 0.10156 0.80078 0 1.1992 0.19922 0.69922 0.30078 1.3984 0.60156 2.3008 0.19922-0.19922-0.30078-0.5-0.60156-0.69922-0.89844 0.19922 0 0.39844 0.19922 0.60156 0.19922 0.19922 0 0.60156-0.10156 0.69922-0.30078 0.19922-0.30078-0.10156-0.30078-0.30078-0.39844-0.30078-0.10156-0.69922-0.30078-1-0.39844-0.10156 0-0.19922-0.19922-0.19922-0.19922-0.10156-0.39844-0.39844-0.5-0.69922-0.60156-0.5-0.10156-0.89844-0.19922-1.3008-0.5-0.5-0.30078-1-0.5-1.5-0.39844s-1.1016-0.10156-1.3984 0.60156c-0.10156-0.19922 0-0.30078-0.10156-0.39844 0-0.10156-0.10156-0.19922-0.19922-0.30078-0.30078-0.10156-0.89844 0.30078-0.89844 0.60156 0 0.39844 0.30078 0.69922 0.69922 0.69922 0.19922 0 0.39844 0 0.60156 0.10156v0.19922c-0.19922 0.10156-0.39844 0.30078-0.5 0.39844v-0.10156c-0.19922-0.10156-0.39844-0.10156-0.60156-0.19922-0.10156 0-0.19922-0.10156-0.30078-0.19922-0.19922-0.10156-0.30078-0.30078-0.5-0.5-0.10156-0.10156-0.30078-0.10156-0.5-0.19922v0.5c0.10156 0.39844 0.10156 0.60156-0.30078 0.80078-0.60156-0.69922-0.60156-0.69922-0.80078-0.60156 0 0.19922-0.10156 0.60156-0.10156 0.60156h-1.6992v-0.19922c0.19922-0.10156 0.39844-0.10156 0.60156-0.19922 0.19922-0.10156 0.30078-0.19922 0.5-0.30078-0.10156-0.10156-0.30078-0.19922-0.39844-0.30078-0.60156-0.19922-0.60156-0.30078-0.39844-0.89844-0.19922 0-0.30078 0-0.5-0.10156 0.10156-0.30078 0.10156-0.5 0.19922-0.80078-0.5 0.10156-1-0.30078-1.3984 0.10156h-0.10156c-0.39844-0.19922-0.89844-0.30078-1.3008-0.5-0.5-0.30078-1.3984 0-1.6016 0.69922 0.39844-0.10156 0.69922-0.10156 1-0.10156 0.10156 0 0.19922 0.10156 0.30078 0.10156-0.10156 0.10156-0.10156 0.19922-0.19922 0.30078-0.19922 0.10156-0.5 0.10156-0.69922 0.10156-0.60156-0.10156-1 0.10156-1.1992 0.80078 0.19922 0.10156 0.30078 0.19922 0.60156 0.39844-0.69922-0.19922-1-0.10156-1.1992-0.10156-0.5-0.10156-0.89844-0.10156-1.3984 0-0.39844 0.10156-1-0.10156-1.3984 0.30078h-0.10156c-0.39844-0.10156-0.80078-0.30078-1.1992-0.39844-0.30078-0.10156-0.5-0.10156-0.80078-0.10156-0.30078 0-0.5 0.10156-0.80078 0-0.30078 0-0.69922-0.10156-1-0.19922-0.5-0.10156-0.89844-0.10156-1.3984-0.10156h-0.30078c-0.60156 0.19922-1.1992 0.39844-1.8008 0.60156-0.19922 0.10156-0.30078 0.19922-0.39844 0.30078 0.10156 0.10156 0.19922 0.19922 0.39844 0.30078 0.30078 0.19922 0.60156 0.30078 0.80078 0.39844 0 0.10156 0 0.10156-0.10156 0.19922-0.10156 0-0.30078-0.10156-0.39844-0.10156-0.30078 0-0.60156-0.10156-0.80078-0.10156-0.10156 0-0.30078 0.19922-0.39844 0.30078 0.10156 0.10156 0.19922 0.30078 0.30078 0.30078 0.29688 0.19531 0.49609 0.29688 0.79688 0.39844-0.30078 0.19922-0.80078 0.39844-0.5 0.89844 0.19922 0.39844 0.5 0.5 0.89844 0.19922 0.10156 0.19922 0.10156 0.30078 0.10156 0.30078 0.39844 0.10156 0.69922 0.19922 1.1016 0.19922-0.60156 0.5-1.3008 0.60156-1.6992 1.1992h0.5c0.19922 0 0.5-0.10156 0.69922-0.19922 0.30078-0.10156 0.5-0.10156 0.69922-0.30078 0.19922-0.10156 0.30078-0.30078 0.60156-0.10156 0.30078 0.10156 0.69922-0.19922 0.60156-0.5v-0.69922c0.49609 0.50391 1.0977 0.40234 1.4961-0.19922 0.60156 0.10156 1.1992 0.30078 1.8008 0.5 0.5 0.10156 1 0.19922 1.1016 0.80078l0.10156 0.10156c0.5 0.10156 0.60156 0.39844 0.60156 0.80078 0 0.19922 0.30078 0.39844 0.39844 0.5 0.10156 0 0.30078-0.10156 0.5-0.19922 0.10156 0.19922 0.19922 0.5 0.30078 0.69922 0.10156 0.19922 0.19922 0.39844 0.30078 0.5 0.60156 0.19922 0.69922 0.69922 0.80078 1.1992v0.69922c-0.19922 1 0.5 1.6992 0.69922 2.6016 0 0.10156 0.19922 0.19922 0.30078 0.19922 0.69922 0.10156 1 0.69922 1.1016 1.3008 0.10156 0.39844 0.60156 0.60156 0.39844 1.1016l0.10156 0.10156c0.19922 0.19922 0.39844 0.39844 0.60156 0.5 0.19922 0.19922 0.30078 0.39844 0.5 0.5 0.10156 0.10156 0.19922 0.10156 0.30078 0.10156 0-0.10156 0-0.19922-0.10156-0.39844-0.19922-0.39844-0.5-0.80078-0.69922-1.1992l0.10156-0.10156c0.60156 0.60156 1.1992 1.3008 1.6016 2.1016 0.19922 0.39844 0.19922 0.89844 0.80078 0.89844 0.10156 0 0.19922 0.10156 0.19922 0.10156 0.19922 0.69922 0.69922 0.89844 1.3008 0.89844h0.39844c0.30078-0.19922 0.5-0.10156 0.60156 0.10156 0.30078 0.39844 0.69922 0.60156 1.1992 0.69922 0.19922 0 0.39844 0.19922 0.39844 0.30078 0 0.60156 0.5 0.69922 0.80078 1 0.60156 0.5 0.60156 0.5 1.3008 0.19922 0.60156 0.69922 0.69922 1.5 0.10156 2-0.89844 0.60156-0.39844 1.6016-0.60156 2.3008 0 0 0 0.10156 0.10156 0.19922 0.5 0.39844 0.60156 1 0.80078 1.5 0.30078 0.69922 0.39844 1.5 1.3008 1.8008 0.69922 0.19922 0.89844 0.80078 0.80078 1.6016-0.10156 0.60156-0.10156 1.3008-0.10156 1.8984 0 0.10156-0.10156 0.19922-0.10156 0.30078-0.10156 0.30078-0.19922 0.5-0.30078 0.80078 0.19922 0.30078 0.19922 0.69922 0.10156 1.1016 0 0.19922-0.19922 0.39844-0.19922 0.60156 0 0.30078 0 0.69922-0.10156 1-0.10156 0.60156 0.10156 1.3984-0.5 1.8984v0.10156c0 0.39844 0 0.89844 0.10156 1.3008 0 0.19922 0.19922 0.39844 0.19922 0.60156 0.19922 0.89844 1.6016 1.5 2.3984 0.69922-0.10156 0-0.10156 0-0.19922-0.10156-0.5-0.10156-0.69922-0.39844-0.80078-0.80078 0-0.19922 0.19922-0.5 0.39844-0.69922 0.19922-0.30078 0.39844-0.5 0.60156-0.69922-0.19922-0.10156-0.39844-0.19922-0.5-0.30078 0.10156-0.19922 0.19922-0.30078 0.30078-0.39844 0.19922-0.39844 0.89844-0.60156 0.30078-1.1992h0.60156c-0.10156-0.5 0.10156-0.60156 0.5-0.60156s0.69922-0.10156 0.89844-0.5c0.10156-0.19922 0.19922-0.39844 0.19922-0.69922 0.60156 0 1-0.39844 1.1016-0.80078 0.19922-0.60156 0.60156-0.89844 0.89844-1.3984 0.10156-0.10156 0.19922-0.30078 0.10156-0.39844-0.19922-0.39844 0-0.60156 0.30078-0.80078 0.39844-0.19922 0.80078-0.30078 1.1992-0.5 0.10156-0.10156 0.30078-0.10156 0.39844-0.19922 0.39844-0.69922 0.69922-1.3984 0.69922-2.1992 0-0.30078 0.10156-0.60156 0.30078-0.80078 0.19922-0.5 0.60156-0.89844 0.80078-1.3008 0.38672-0.61719 0.085938-1.1172-0.41406-1.3164zm-10.398-15.5c-0.39844 0.19922-0.69922 0.39844-1.1016 0.60156 0.19922-0.5 0.39844-0.70312 1.1016-0.60156zm-1.2031-0.60156-0.10156 0.10156c-0.10156 0.30078-0.19922 0.5-0.30078 0.89844-0.10156-0.19922-0.19922-0.30078-0.19922-0.39844 0-0.30078 0-0.60156-0.39844-0.5-0.39844 0-0.5 0.30078-0.60156 0.60156 0 0.19922 0 0.39844-0.10156 0.69922-0.19922-0.30078-0.30078-1.1016-0.10156-1.3984 0.19922-0.30078 0.5-0.19922 0.80078-0.19922 0.40625 0.19531 0.70703 0.19531 1.0039 0.19531zm-1.0977-0.5h-1.6016c0.80078-0.79688 1-0.79688 1.6016 0zm-8.8008-6.5977c-0.39844-0.19922-0.69922-0.30078-1.1992-0.5 0.30078-0.19922 0.5-0.30078 0.69922-0.39844 0.19922 0.19922 0.39844 0.5 0.60156 0.69922-0.10156 0.097657-0.10156 0.19922-0.10156 0.19922zm0.39844-1.6016v-0.10156c0.10156 0 0.39844-0.10156 0.39844 0 0.19922 0.30078 0.5 0.19922 0.80078 0.19922h0.80078c-0.5 0.30469-1.2969 0.30469-2-0.097656z"/>
  <path d="m28.898 29.5c0.19922 0 0.30078-0.10156 0.5-0.10156 0.19922-0.10156 0.39844-0.30078 0.60156-0.39844 0.10156-0.10156 0.19922-0.10156 0.30078-0.19922 0.10156-0.10156 0.19922-0.19922 0.30078-0.30078 0.10156-0.10156 0.10156-0.30078 0.19922-0.30078 0.89844-0.39844 1.6016-1.3008 2.8008-0.69922 0.30078 0.19922 0.60156 0 0.69922-0.39844 0.10156-0.5 0.10156-0.5 0.5-0.30078 0.39844-0.19922 0.69922-0.60156 1.1016-0.69922 1.1992-0.39844 2.3984-0.60156 3.6016 0 0.30078 0.10156 0.69922 0.10156 1 0 0.39844 0 0.5 0.10156 0.60156 0.39844 0.10156 0.39844 0.30078 0.80078 0.5 1.1016 0.30078 0.39844 0.60156 0.10156 0.80078-0.10156 0.19922-0.19922 0.5-0.39844 0.80078-0.30078 0.10156 0 0.30078 0.10156 0.39844 0.19922-0.10156 0.10156-0.10156 0.30078-0.19922 0.39844-0.39844 0.30078-0.80078 0.69922-1.1016 1-0.19922 0.19922-0.30078 0.5 0 0.69922 0 0 0.10156 0.19922 0 0.19922-0.10156 0.30078-0.19922 0.60156-0.30078 0.89844h-0.30078c-0.5-0.10156-0.60156 0-0.5 0.39844 0.19922 0.69922 0.19922 0.80078-0.60156 1.1016-0.5 0.19922-1 0.19922-1.6016 0.39844-0.19922 0.10156-0.39844 0.19922-0.5 0.30078-0.19922 0.30078-0.39844 0.30078-0.69922 0.30078-0.5 0-0.89844 0.10156-1 0.69922-0.10156 0.39844-0.39844 0.69922-0.60156 1-0.10156 0.19922-0.30078 0.19922-0.5 0.10156-0.30078-0.19922-0.80078-0.30078-1-0.60156-0.39844-0.39844-0.89844-0.89844-0.89844-1.3984-0.10156-0.80078-0.69922-1.3984-0.60156-2.1992 0-0.10156-0.19922-0.30078-0.39844-0.39844-0.80078-0.39844-1.6016-0.5-2.5-0.30078-0.10156 0-0.19922 0-0.30078-0.10156-0.5 0.10547-0.69922-0.09375-1.1016-0.39453z"/>
  <path d="m85.102 64.602c-0.19922 0.19922-0.39844 0.39844-0.60156 0.60156-0.10156-0.10156-0.10156-0.19922-0.10156-0.30078 0-0.30078-0.19922-0.39844-0.39844-0.60156-0.69922-0.60156-1.3008 0.10156-2 0-0.10156 0-0.19922 0.30078-0.30078 0.39844-0.19922 0.30078-0.30078 0.5-0.69922 0.30078-0.19922-0.10156-0.39844 0-0.69922 0.10156-0.30078 0.10156-0.5 0.19922-0.69922 0.19922-0.19922 0-0.39844-0.19922-0.5-0.30078-0.10156-0.10156 0-0.39844 0.10156-0.39844 0.19922-0.30078 0.19922-0.5 0-0.69922-0.19922-0.5-0.30078-1-0.5-1.5 0-0.10156-0.10156-0.19922-0.10156-0.30078-0.30078-0.30078-0.19922-0.60156 0-0.80078 0.39844-0.39844 0.69922-0.80078 1.3008-0.80078 0.19922 0 0.5-0.10156 0.69922-0.30078 0.10156-0.10156 0.19922-0.30078 0.10156-0.5 0-0.60156 0-0.60156 0.60156-0.60156 0.10156 0 0.30078-0.10156 0.39844-0.30078 0.19922-0.30078 0.39844-0.69922 0.80078-0.19922 0 0 0.30078 0 0.39844-0.10156 0.10156-0.19922 0.19922-0.39844 0.30078-0.60156 0.19922 0 0.30078-0.10156 0.5-0.10156 0.39844 0 0.69922 0.10156 1.1016 0.19922 0.10156 0 0.10156 0.30078 0 0.39844-0.10156 0.30078 0 0.5 0.30078 0.60156 0.30078 0.10156 0.5 0.30078 0.80078 0.5 0.30078-0.30078 0.39844-0.69922 0.30078-1.1016-0.10156-0.30078-0.10156-0.69922 0.19922-1 0.30078 0.5 0.60156 1 0.89844 1.5 0 0.10156 0.10156 0.19922 0.10156 0.30078 0 0.60156 0.30078 1 0.89844 1.1016 0.30078 0.10156 0.39844 0.30078 0.39844 0.60156 0.10156 0.5 0.30078 0.89844 0.5 1.3008 0.10156 0.39844 0.39844 0.69922 0.39844 1.1016 0 0.30078-0.10156 0.60156-0.19922 0.80078-0.39844 0.5-0.80078 0.89844-1 1.5-0.10156 0.30078-1 0.69922-1.3008 0.60156-0.10156 0-0.10156-0.10156-0.19922 0-0.39844 0.30078-0.69922-0.10156-1-0.19922-0.10156 0-0.10156-0.10156-0.19922-0.10156-0.10156-0.39844-0.40234-0.79688-0.60156-1.2969z"/>
  <path d="m85.398 56.5c0.10156-0.39844-0.10156-0.69922-0.60156-0.89844-0.30078-0.10156-0.69922-0.19922-1.1016-0.30078 0.19922-0.39844 0.10156-0.69922-0.30078-0.80078 0.19922-0.39844 0.19922-0.39844 0.5-0.19922 0.30078 0.10156 0.60156 0.30078 1 0.30078 1.3008 0 2.1992 0.60156 2.8984 1.6992 0.19922 0.30078 0.5 0.60156 0.69922 0.89844 0.10156 0.10156 0 0.19922 0 0.30078h-0.30078c-0.19922-0.19922-0.5-0.39844-0.60156-0.60156-0.19922-0.30078-0.5-0.39844-0.69922-0.10156-0.10156 0.10156-0.10156 0.19922-0.19922 0.30078-0.19922 0.30078-0.30078 0.30078-0.5 0-0.39062-0.29688-0.58984-0.39844-0.79297-0.59766z"/>
  <path d="m80 52.398v1c0 0.30078-0.10156 0.5-0.19922 0.80078-0.10156 0.19922-0.10156 0.5-0.19922 0.69922-0.10156 0.10156-0.10156 0.30078-0.19922 0.39844-0.80078 0.30078-2-0.69922-1.8008-1.6016 0-0.10156 0.10156-0.19922 0.10156-0.19922 0.5 0 0.80078-0.39844 1.1016-0.69922 0.19922-0.19922 0.69922-0.30078 0.69922-0.69922h0.30078c0.09375 0.10156 0.09375 0.20312 0.19531 0.30078z"/>
  <path d="m61.898 58.801c-0.19922 0.69922-0.39844 1.5-0.60156 2.1992-0.10156 0.30078-0.19922 0.5-0.30078 0.80078-0.10156 0.30078-0.39844 0.39844-0.60156 0.30078-0.10156-0.10156-0.19922-0.30078-0.30078-0.5-0.10156-0.5 0-1 0-1.3984-0.10156-0.69922 0.10156-1.1016 0.69922-1.3984 0.19922-0.10156 0.30078-0.30078 0.39844-0.5 0.10156-0.10156 0.30078-0.19922 0.39844-0.39844 0.10156 0.19922 0.19922 0.30078 0.30078 0.5 0.007813 0.19531-0.089844 0.29297 0.007813 0.39453z"/>
  <path d="m73.898 52.398c0.10156 0 0.30078 0 0.39844 0.10156 0.19922 0.19922 0.5 0.30078 0.69922 0.5 0.60156 0.5 1.1992 1.1016 1.6992 1.6992 0.10156 0.10156 0.10156 0.30078 0 0.5-0.19922 0.60156 0.10156 1 0.69922 1.1016 0.30078 0 0.69922 0 1 0.10156 0.19922 0 0.39844 0.19922 0.5 0.30078 0 0.10156 0 0.10156-0.10156 0.19922-0.30078 0-0.69922-0.10156-1-0.10156-0.10156 0-0.19922-0.10156-0.30078-0.10156-0.60156 0.10156-1-0.19922-1.3984-0.69922-0.10156-0.10156-0.30078-0.30078-0.5-0.30078-0.5-0.10156-0.69922-0.5-0.69922-0.89844 0-0.69922-0.39844-1.1992-0.89844-1.6992-0.19922-0.10156-0.30078-0.30078-0.39844-0.5 0.20312-0.20312 0.20312-0.20312 0.30078-0.20312z"/>
  <path d="m85.699 40.898c-0.10156-0.5 0.30078-0.80078 0.60156-0.89844 0.30078-0.10156 0.69922 0.19922 1.1016 0.39844-0.10156 0.10156-0.10156 0.19922-0.19922 0.30078-0.19922 0.10156-0.5 0.10156-0.69922 0.19922-0.39844 0-0.39844 0.19922-0.30078 0.5 0.19922 0.5-0.10156 1.3984-0.60156 1.6992-0.60156 0.30078-1.1016 0.69922-1.8008 0.80078-0.10156 0-0.10156 0.10156-0.19922 0.10156-0.10156 0.19922-0.30078 0.39844-0.5 0.10156-0.19922-0.19922-0.30078-0.5 0-0.69922 0.39844-0.30078 0.60156-0.60156 1.1992-0.5 0.60156 0.10156 1.3008-0.69922 1.3984-1.3984v-0.60547z"/>
  <path d="m66 30.5c-0.80078-0.10156-1.5-0.10156-2.1992 0.30078-0.30078 0.19922-0.5 0.30078-0.30078 0.69922 0.19922 0.30078-0.10156 0.39844-0.30078 0.39844-0.39844-0.10156-0.69922-0.19922-1.1016-0.39844 0 0 0-0.39844 0.10156-0.39844 1-0.60156 1.8984-1.3984 3.1992-1.1992 0.19922 0 0.5-0.10156 0.80078-0.10156h0.39844c-0.10156 0.10156-0.10156 0.30078-0.19922 0.39844-0.097657 0.19922-0.29688 0.19922-0.39844 0.30078z"/>
  <path d="m44.301 33.301c-0.30078 0.69922-1.3008 1-1.8008 0.80078-0.10156-0.10156-0.30078-0.10156-0.39844-0.10156-0.30078-0.10156-0.5-0.30078-0.39844-0.60156 0.10156-0.30078 0.39844-0.19922 0.60156-0.10156 0.30078 0 0.60156 0.10156 0.89844 0.10156 0.39844-0.097657 0.69531-0.097657 1.0977-0.097657z"/>
  <path d="m93.398 68.801c-0.19922-0.10156-0.39844-0.19922-0.39844-0.30078s0-0.39844 0.10156-0.5c0.39844-0.39844 0.80078-0.80078 1.3008-1.1016 0.10156-0.10156 0.30078-0.10156 0.39844-0.10156 0.10156 0 0.19922 0.19922 0.10156 0.30078-0.10156 0.19922-0.19922 0.39844-0.30078 0.60156-0.19922 0.30078-0.5 0.5-0.80078 0.80078 0 0.19922-0.19922 0.30078-0.40234 0.30078z"/>
  <path d="m74.699 50.801c0.30078 0.39844 0.60156 0.80078 0.89844 1.1992 0.39844 0.5 0.5 1.1992 0.69922 1.8008-0.5-0.10156-0.80078-0.39844-0.89844-0.80078-0.19922-0.5-0.5-1-0.69922-1.6016-0.097657-0.19922 0-0.39844 0-0.59766z"/>
  <path d="m80.898 48.199c0.30078 0.19922 0.30078 0.19922 0 1.1016 0.19922 0.10156 0.5 0.19922 0.69922 0.30078-0.39844 0.30078-0.80078 0.60156-1.1016 0.89844 0 0-0.10156-0.10156 0-0.10156 0.30078-0.30078 0.30078-0.69922 0-1-0.10156-0.10156-0.10156-0.39844 0-0.5 0.003906-0.29688 0.20312-0.5 0.40234-0.69922z"/>
  <path d="m95.301 67c-0.19922-0.19922-0.30078-0.39844-0.39844-0.60156v-1.3008c0.10156 0.10156 0.19922 0.10156 0.30078 0.30078 0.10156 0.30078 0.30078 0.60156 0.69922 0.60156 0 0 0.10156 0.10156 0.10156 0.19922-0.003906 0.10156-0.60547 0.80078-0.70312 0.80078z"/>
  <path d="m80.199 55.301c-0.19922-0.80078 0-1 0.69922-1 0.10156 0 0.30078 0.10156 0.39844 0.10156-0.10156 0.10156-0.10156 0.19922-0.19922 0.39844 0.10156 0.10156 0.19922 0.30078 0.19922 0.5v0.39844c-0.10156 0-0.30078-0.10156-0.39844-0.19922-0.10156-0.10156-0.10156-0.19922-0.19922-0.39844-0.097657 0.097657-0.30078 0.097657-0.5 0.19922z"/>
  <path d="m25.898 47.102c0.19922-0.39844 0.89844-0.39844 1.1992-0.19922 0.30078 0.19922 0.60156 0.39844 0.89844 0.5 0.10156 0 0.10156 0.19922 0.19922 0.19922-0.10156 0-0.19922 0.10156-0.30078 0.10156-0.59375-0.40234-1.1953-0.70312-1.9961-0.60156z"/>
  <path d="m28.602 48.301c0.30078-0.39844 0.60156-0.60156 1-0.5 0.30078 0.10156 0.5 0.30078 0.39844 0.80078-0.5-0.20312-0.89844-0.20312-1.3984-0.30078z"/>
  <path d="m69.898 51.102c0.10156 0.10156 0.19922 0.30078 0.19922 0.39844 0 0.39844 0.19922 0.80078-0.30078 1.1016-0.30078-0.5-0.10156-1 0-1.3984 0.003906-0.10156 0.003906-0.10156 0.10156-0.10156z"/>
  <path d="m88 66.898c0.10156 0.39844-0.10156 0.80078-0.39844 0.80078-0.39844 0-0.39844-0.39844-0.5-0.60156 0.29688 0.003906 0.59766-0.097656 0.89844-0.19922z"/>
  <path d="m51.801 41.898c0.19922 0.10156 0.39844 0.10156 0.5 0.19922 0.10156 0.10156 0.10156 0.19922 0.10156 0.30078-0.10156 0-0.30078 0.10156-0.30078 0.10156-0.19922-0.10156-0.30078-0.30078-0.39844-0.39844 0.097656-0.10156 0.097656-0.10156 0.097656-0.20312z"/>
  <path d="m80.898 46.102v0.5c-0.10156 0.10156-0.19922 0.30078-0.30078 0.39844 0 0-0.19922 0-0.19922-0.10156 0-0.19922 0-0.39844 0.10156-0.5 0.10156-0.097657 0.19922-0.097657 0.39844-0.29688z"/>
  <path d="m81.5 51.102c-0.19922-0.10156-0.39844-0.19922-0.60156-0.30078 0.10156-0.10156 0.19922-0.19922 0.30078-0.30078 0.10156 0.10156 0.30078 0.30078 0.39844 0.39844 0.003906 0.10156-0.097656 0.10156-0.097656 0.20312z"/>
  <path d="m51 41.398c-0.10156 0.10156-0.19922 0.19922-0.30078 0.19922-0.10156 0-0.19922-0.10156-0.19922-0.19922 0-0.10156 0.10156-0.19922 0.19922-0.30078 0.10156 0.10156 0.19922 0.20312 0.30078 0.30078z"/>
  <path d="m5.3984 36c0 0.60156-0.19922 0.69922-0.69922 0.60156 0.30078-0.20312 0.5-0.30078 0.69922-0.60156z"/>
 </g>
</svg>
